<svg width="53" height="67" viewBox="0 0 53 67" fill="none" xmlns="http://www.w3.org/2000/svg">
<path fill-rule="evenodd" clip-rule="evenodd" d="M26.5 27.9167C23.671 27.9167 21.375 25.4153 21.375 22.3333C21.375 19.2513 23.671 16.75 26.5 16.75C29.329 16.75 31.625 19.2513 31.625 22.3333C31.625 25.4153 29.329 27.9167 26.5 27.9167ZM26.5 13.9583C22.2539 13.9583 18.8125 17.7075 18.8125 22.3333C18.8125 26.9591 22.2539 30.7083 26.5 30.7083C30.7461 30.7083 34.1875 26.9591 34.1875 22.3333C34.1875 17.7075 30.7461 13.9583 26.5 13.9583ZM8.5625 21.2223C8.5625 11.404 16.9444 2.79167 26.5 2.79167C36.0556 2.79167 44.4375 11.404 44.4375 21.2223C44.4375 30.8675 37.8698 42.2798 26.5 61.7768C14.9969 42.0313 8.5625 30.8675 8.5625 21.2223ZM26.5 0C15.7426 0 6 9.50004 6 21.2223C6 32.9417 14.8893 46.9335 26.5 67C38.1107 46.9335 47 32.9417 47 21.2223C47 9.50004 37.2599 0 26.5 0Z" fill="#111111"/>
</svg>
