<svg width="8" height="14" viewBox="0 0 8 14" fill="none" xmlns="http://www.w3.org/2000/svg">
<path d="M0.14706 12.8551C0.100497 12.8086 0.0635541 12.7534 0.0383477 12.6927C0.0131412 12.6319 0.000166357 12.5668 0.000166357 12.5011C0.000166357 12.4353 0.0131412 12.3702 0.0383477 12.3094C0.0635541 12.2487 0.100497 12.1935 0.14706 12.1471L5.79406 6.50106L0.14706 0.85506C0.0531732 0.761174 0.000428617 0.633836 0.000428617 0.50106C0.000428617 0.368285 0.0531732 0.240947 0.14706 0.14706C0.240946 0.0531736 0.368284 0.000428975 0.50106 0.000428975C0.633836 0.000428975 0.761173 0.0531736 0.85506 0.14706L6.85506 6.14706C6.90162 6.19351 6.93857 6.24868 6.96377 6.30943C6.98898 6.37017 7.00195 6.43529 7.00195 6.50106C7.00195 6.56683 6.98898 6.63195 6.96377 6.69269C6.93857 6.75344 6.90162 6.80861 6.85506 6.85506L0.85506 12.8551C0.808614 12.9016 0.753438 12.9386 0.692693 12.9638C0.631948 12.989 0.566827 13.002 0.50106 13.002C0.435293 13.002 0.370172 12.989 0.309427 12.9638C0.248682 12.9386 0.193506 12.9016 0.14706 12.8551Z" fill="#111111"/>
</svg>
