<svg width="55" height="55" viewBox="0 0 55 55" fill="none" xmlns="http://www.w3.org/2000/svg">
<path d="M8.22683 3.02958L14.7443 0L24.005 18.0812L17.7602 21.1544C16.5272 24.0396 22.7079 35.5667 25.3158 35.7569C25.522 35.624 31.4368 32.7135 31.4368 32.7135L40.8556 50.891C40.8556 50.891 34.5214 53.994 34.3152 54.0902C16.3004 62.3196 -9.45796 12.249 8.22683 3.02958V3.02958ZM12.6497 5.94917L10.3054 7.10417C-1.82671 13.4337 19.8777 55.6531 32.4154 49.9262L34.6406 48.84L29.4362 38.7956L27.085 39.9415C19.8364 43.4867 8.15121 21.1062 15.5006 17.1669L17.8083 16.0279L12.6497 5.94917V5.94917ZM30.5981 23.4781L37.2829 25.4719C37.7939 23.76 37.6495 21.8533 36.7329 20.1621C35.8185 18.4685 34.2991 17.3044 32.5895 16.7956L30.5981 23.4781V23.4781ZM34.7322 9.59292C38.2866 10.6517 41.4377 13.0671 43.3397 16.5848C45.2441 20.1048 45.5397 24.0625 44.481 27.6146L40.3675 26.3885C41.1122 23.8883 40.9014 21.104 39.5608 18.6267C38.2247 16.1494 36.0064 14.4512 33.5039 13.7087L34.7322 9.59292V9.59292ZM36.9093 2.29167C42.3291 3.90729 47.137 7.59 50.0383 12.9617C52.9464 18.331 53.3979 24.3696 51.7822 29.7917L47.5656 28.5358C48.8581 24.1931 48.496 19.3554 46.1722 15.0562C43.8439 10.7548 39.9939 7.80312 35.6512 6.51062L36.9093 2.29167V2.29167Z" fill="#111111"/>
</svg>
