<svg width="512" height="513" viewBox="0 0 512 513" fill="none" xmlns="http://www.w3.org/2000/svg">
<g clip-path="url(#clip0_281_14)">
<path d="M476.158 231.364C496.423 234.449 512 251.99 511.999 273.101V358.613C511.999 363.041 508.409 366.63 503.983 366.63H477.78C477.782 366.807 477.793 366.984 477.793 367.164C477.793 395.16 455.016 417.935 427.022 417.935C399.027 417.935 376.249 395.16 376.249 367.164C376.249 366.985 376.261 366.807 376.263 366.63H195.593C195.595 366.807 195.607 366.984 195.607 367.164C195.607 395.16 172.83 417.935 144.835 417.935C116.84 417.935 94.0635 395.16 94.0635 367.164C94.0635 366.985 94.0752 366.807 94.0772 366.63H50.7735C41.6368 366.63 34.2051 359.198 34.2051 350.061V332.424H8.0166C3.5889 332.424 0 328.836 0 324.408C0 319.979 3.5898 316.39 8.0166 316.39H84.9766C89.4053 316.39 92.9942 319.979 92.9942 324.408C92.9942 328.836 89.4044 332.424 84.9766 332.424H50.2383V350.061C50.2383 350.357 50.4766 350.595 50.7725 350.595H96.8526C103.738 330.713 122.64 316.39 144.835 316.39C167.03 316.39 185.931 330.713 192.817 350.595H359.144V290.205C359.144 285.777 362.735 282.187 367.162 282.187C371.59 282.187 375.179 285.778 375.179 290.205V350.597H379.039C385.924 330.715 404.826 316.392 427.021 316.392C449.216 316.392 468.117 330.715 475.003 350.597H495.965V315.325H486.879C473.028 315.325 461.76 304.056 461.76 290.206V273.103C461.76 268.676 465.349 265.087 469.777 265.087H494.705C491.31 254.561 481.429 246.924 469.793 246.916C469.786 246.916 469.779 246.917 469.771 246.917C469.764 246.917 469.758 246.915 469.75 246.915H375.181V256.003C375.181 260.43 371.591 264.019 367.164 264.019C362.736 264.019 359.147 260.429 359.147 256.003V110.631C359.147 110.336 358.908 110.096 358.613 110.096H50.7721C50.4762 110.096 50.2379 110.336 50.2379 110.631V256.001C50.2379 260.428 46.6481 264.017 42.2203 264.017C37.7925 264.017 34.2037 260.427 34.2037 256.001V110.631C34.2037 101.495 41.6353 94.0623 50.7721 94.0623H358.614C367.75 94.0623 375.181 101.495 375.181 110.631V128.268H435.574C454.139 128.268 469.244 143.373 469.244 161.939V170.49C469.244 174.343 466.524 177.558 462.899 178.329L476.158 231.364ZM375.182 144.302V162.473H453.212V161.94C453.212 152.214 445.3 144.302 435.575 144.302H375.182V144.302ZM375.182 230.882H459.512L446.418 178.506H375.182V230.882H375.182ZM144.835 401.905C163.991 401.905 179.575 386.322 179.575 367.166C179.575 348.01 163.991 332.427 144.835 332.427C125.68 332.427 110.096 348.01 110.096 367.166C110.096 386.322 125.68 401.905 144.835 401.905ZM427.023 401.905C446.178 401.905 461.762 386.322 461.762 367.166C461.762 348.01 446.178 332.427 427.023 332.427C407.868 332.427 392.284 348.01 392.284 367.166C392.284 386.322 407.868 401.905 427.023 401.905ZM495.967 299.291H495.966V281.119H477.796V290.205C477.796 295.215 481.872 299.291 486.882 299.291H495.967V299.291ZM144.835 350.598C153.971 350.598 161.404 358.03 161.404 367.166C161.404 376.302 153.971 383.734 144.835 383.734C135.7 383.734 128.267 376.302 128.267 367.166C128.267 358.03 135.7 350.598 144.835 350.598ZM427.023 350.598C436.159 350.598 443.591 358.03 443.591 367.166C443.591 376.302 436.159 383.734 427.023 383.734C417.887 383.734 410.455 376.302 410.455 367.166C410.455 358.03 417.887 350.598 427.023 350.598ZM332.96 316.394C337.388 316.394 340.977 319.984 340.977 324.412C340.977 328.839 337.387 332.428 332.96 332.428H213.244C208.817 332.428 205.227 328.839 205.227 324.412C205.227 319.984 208.818 316.394 213.244 316.394H332.96ZM127.733 282.189C132.16 282.189 135.75 285.778 135.75 290.206C135.75 294.633 132.16 298.222 127.733 298.222H25.1194C20.6917 298.222 17.1018 294.633 17.1019 290.206C17.102 285.778 20.6927 282.189 25.1194 282.189H127.733V282.189ZM278.771 173.371C281.901 176.502 281.901 181.577 278.77 184.709L201.809 261.669C200.246 263.235 198.193 264.017 196.141 264.017C194.091 264.017 192.039 263.235 190.473 261.669L147.718 218.913C144.587 215.782 144.587 210.707 147.718 207.576C150.848 204.445 155.924 204.445 159.055 207.576L196.141 244.663L267.433 173.372C270.564 170.241 275.64 170.241 278.771 173.371H278.771Z" fill="#666666"/>
</g>
<defs>
<clipPath id="clip0_281_14">
<rect width="512" height="512.002" fill="white"/>
</clipPath>
</defs>
</svg>
