<svg width="512" height="512" viewBox="0 0 512 512" fill="none" xmlns="http://www.w3.org/2000/svg">
<path d="M256 8C119.252 8 8 119.252 8 256C8 392.748 119.252 504 256 504C392.748 504 504 392.748 504 256C504 119.252 392.748 8 256 8ZM419.97 122.366C449.473 158.412 467.339 204.323 467.805 254.321C460.821 252.844 390.787 238.639 320.303 247.503C314.551 233.462 309.122 221.11 301.686 205.889C380.007 173.912 415.504 128.407 419.97 122.366V122.366ZM396.421 97.87C392.611 103.297 360.724 146.156 285.4 174.389C250.688 110.613 212.215 58.221 206.36 50.381C273.536 34.188 344.326 51.651 396.421 97.87V97.87ZM165.941 64.62C171.526 72.279 209.379 124.736 244.478 187.129C145.391 213.442 58.118 213.063 48.644 212.938C62.38 147.205 106.678 92.573 165.941 64.62ZM44.17 256.323C44.17 254.157 44.213 252.001 44.278 249.85C53.546 250.04 156.198 251.363 261.984 219.704C268.048 231.572 273.841 243.619 279.158 255.653C202.559 277.228 132.964 339.18 98.627 397.959C64.794 360.405 44.17 310.73 44.17 256.323ZM125.977 423.436C148.104 378.203 208.155 319.814 293.556 290.68C323.296 367.963 335.595 432.733 338.745 451.318C270.633 480.331 188.73 472.371 125.977 423.436V423.436ZM374.357 431.925C372.186 419.039 360.911 357.028 333.205 280.892C399.585 270.266 457.905 287.66 465.152 289.947C455.71 348.888 421.879 399.791 374.357 431.925Z" fill="white"/>
</svg>
