<svg width="512" height="513" viewBox="0 0 512 513" fill="none" xmlns="http://www.w3.org/2000/svg">
<path d="M484.196 43.075C498.475 44.0906 510.247 55.8465 512.001 70.115V72.6267V370.226C512.001 375.73 510.322 380.647 507.742 385.241C502.056 395.396 493.468 400.526 481.689 400.526H316.87V442.101H348.18C355.946 442.101 362.208 448.138 362.208 455.888C362.208 463.636 355.945 469.674 348.18 469.674H163.571C155.806 469.674 149.795 463.636 149.795 455.888C149.795 448.139 155.806 442.101 163.571 442.101H194.882V400.526H30.0606C18.2881 400.526 9.77538 395.396 4.00878 385.241C1.50288 380.86 0.000976562 375.996 0.000976562 370.226V72.6257V70.115C1.75388 55.8464 12.7774 44.0906 27.5537 43.075V42.3259H30.0605H481.69H484.197V43.075H484.196ZM484.196 72.627H484.195V70.1153H27.5523V72.627V370.227C27.5523 371.991 28.3062 372.739 30.0592 372.739H481.689C483.447 372.739 484.196 371.991 484.196 370.227V72.627H484.196Z" fill="black"/>
</svg>
