<svg width="512" height="513" viewBox="0 0 512 513" fill="none" xmlns="http://www.w3.org/2000/svg">
<path d="M480 143.687C497.632 143.687 512 158.055 512 175.687V255.687C512 264.519 504.832 271.687 496 271.687H480V463.687C480 481.32 465.632 495.687 448 495.687H64C46.3682 495.687 32 481.32 32 463.687V271.687H16C7.168 271.687 0 264.519 0 255.687V175.687C0 158.055 14.3682 143.687 32 143.687H133.248C125.984 138.727 119.744 133.799 115.36 129.383C89.5996 103.431 89.5996 61.1918 115.392 35.2396C140.448 10.0238 184.16 9.9916 209.248 35.2396C223.103 49.1595 259.904 105.831 254.848 143.687H257.152C252.064 105.831 288.896 49.1593 302.752 35.2396C327.84 9.9916 371.552 10.0238 396.608 35.2396C422.4 61.1917 422.4 103.431 396.608 129.383C392.256 133.799 386.015 138.727 378.752 143.687H480H480ZM138.08 57.7989C124.672 71.3028 124.672 93.3194 138.08 106.823C151.872 120.711 194.08 143.687 216.192 143.687C220.768 143.687 222.112 142.631 222.112 142.631C229.568 134.919 208.128 79.4952 186.559 57.7989C180.064 51.2706 171.456 47.6866 162.336 47.6866C153.184 47.6866 144.576 51.2706 138.08 57.7989V57.7989ZM240 463.686V271.686H64V463.686H240ZM240 239.687V175.687H216.192H32.0004V239.687H240H240ZM325.44 57.7989C303.872 79.4952 282.431 134.919 289.856 142.631C289.887 142.663 291.232 143.687 295.807 143.687C317.919 143.687 360.127 120.711 373.919 106.823C387.328 93.3194 387.328 71.3028 373.919 57.7989C360.959 44.8067 338.431 44.7755 325.44 57.7989V57.7989ZM448 463.686V271.686H272V463.686H448ZM480 239.687V175.687H295.808H272V239.687H480H480Z" fill="black"/>
</svg>
