<svg width="50" height="50" viewBox="0 0 50 50" fill="none" xmlns="http://www.w3.org/2000/svg">
<path fill-rule="evenodd" clip-rule="evenodd" d="M25 44.9853C13.2708 33.4458 2.08333 23.5333 2.08333 14.9812C2.08333 7.08325 8.475 4.16659 13.0854 4.16659C15.8187 4.16659 21.7333 5.21034 25 13.452C28.3125 5.18534 34.3 4.18742 36.9292 4.18742C42.2208 4.18742 47.9167 7.5645 47.9167 14.9812C47.9167 23.4583 37.2167 32.9499 25 44.9853ZM36.9292 2.10409C32.3396 2.10409 27.6667 4.27492 25 8.84992C22.3229 4.25409 17.6625 2.08325 13.0854 2.08325C6.45417 2.08325 0 6.6395 0 14.9812C0 24.6916 11.6062 34.6249 25 47.9166C38.3958 34.6249 50 24.6916 50 14.9812C50 6.62492 43.5521 2.10409 36.9292 2.10409" fill="#111111"/>
</svg>
