<svg width="24" height="24" viewBox="0 0 24 24" fill="none" xmlns="http://www.w3.org/2000/svg">
<path fill-rule="evenodd" clip-rule="evenodd" d="M12 21.593C6.37 16.054 1 11.296 1 7.191C1 3.4 4.068 2 6.281 2C7.593 2 10.432 2.501 12 6.457C13.59 2.489 16.464 2.01 17.726 2.01C20.266 2.01 23 3.631 23 7.191C23 11.26 17.864 15.816 12 21.593ZM17.726 1.01C15.523 1.01 13.28 2.052 12 4.248C10.715 2.042 8.478 1 6.281 1C3.098 1 0 3.187 0 7.191C0 11.852 5.571 16.62 12 23C18.43 16.62 24 11.852 24 7.191C24 3.18 20.905 1.01 17.726 1.01" fill="#666666"/>
</svg>
