<svg width="512" height="513" viewBox="0 0 512 513" fill="none" xmlns="http://www.w3.org/2000/svg">
<g clip-path="url(#clip0_265_252)">
<path d="M505.105 44.44C509.817 53.6754 511.948 66.2105 512 85.1021C512 101.401 510.25 117.7 506.779 133.535C503.394 148.958 498.355 164.127 491.798 178.633C485.366 192.856 477.397 206.571 468.13 219.401C458.958 232.104 448.415 244.038 436.83 254.875C425.244 265.703 412.487 275.539 398.929 284.098C385.256 292.744 370.634 300.166 355.473 306.154C347.944 309.132 340.244 311.765 332.427 314.052V320.779C344.582 324.229 353.512 335.42 353.512 348.665C353.512 364.65 340.506 377.656 324.522 377.656C308.537 377.656 295.531 364.65 295.531 348.665C295.531 335.42 304.462 324.229 316.616 320.779V318.151C313.583 318.84 310.542 319.496 307.487 320.081C293.213 322.816 278.588 324.385 263.905 324.804V326.231L299.959 397.822C301.086 400.058 301.086 402.697 299.959 404.933L263.059 478.203C261.716 480.871 258.986 482.553 255.999 482.553C253.012 482.553 250.282 480.871 248.938 478.203L212.039 404.933C210.912 402.697 210.912 400.058 212.039 397.822L248.092 326.231V324.816C230.262 324.307 212.576 322.066 195.382 318.155V320.778C207.536 324.228 216.467 335.419 216.467 348.664C216.467 364.649 203.461 377.655 187.475 377.655C171.491 377.655 158.485 364.649 158.485 348.664C158.485 335.419 167.416 324.228 179.57 320.778V314.056C165.31 309.88 151.434 304.525 138.158 298.067C120.637 289.538 104.128 279.08 89.1161 266.977C74.1561 254.917 60.6718 241.234 49.0546 226.305C46.3778 222.868 46.9892 217.892 50.4355 215.214C51.8378 214.118 53.5136 213.548 55.2851 213.548C57.7411 213.548 60.0185 214.655 61.5273 216.595C72.4062 230.553 85.0253 243.363 99.0361 254.664C113.121 266.018 128.608 275.833 145.075 283.845C161.836 292.004 179.622 298.288 197.944 302.537C216.825 306.901 236.349 309.116 255.979 309.116H256.001C272.341 309.116 288.66 307.577 304.516 304.55C319.961 301.588 335.153 297.181 349.669 291.447C363.912 285.817 377.639 278.848 390.489 270.731C403.203 262.698 415.169 253.472 426.028 243.321C436.886 233.158 446.743 221.994 455.314 210.133C463.969 198.168 471.401 185.379 477.4 172.118C483.504 158.624 488.196 144.507 491.337 130.149C494.553 115.42 496.186 100.27 496.186 85.1002C496.197 73.2086 495.142 63.4684 493.119 56.9107C491.495 51.6294 489.397 48.2779 486.719 46.6539C485.137 45.7047 483.357 45.2838 480.931 45.2613H480.858C477.462 45.2613 472.951 46.2955 467.795 48.2457C462.693 50.1549 456.652 53.0221 449.315 57.0279C440.628 61.7603 430.801 67.6968 420.397 73.9898C414.23 77.732 407.83 81.5904 401.157 85.5337C385.281 94.8628 364.143 106.796 341.414 116.264C319.382 125.444 298.844 131.157 278.832 133.693C276.025 143.664 266.856 150.998 256 150.998C245.14 150.998 235.969 143.66 233.166 133.684C209.869 130.717 185.699 123.415 159.505 111.424C134.835 100.133 112.444 86.5874 92.6981 74.6323C87.5116 71.5014 82.6102 68.5385 77.8661 65.7348C61.5975 56.0571 51.1718 50.6918 43.0018 47.8022C38.3631 46.1362 34.2518 45.2612 31.12 45.2612H31.0673C28.6415 45.2837 26.8495 45.7046 25.2792 46.6538C23.5927 47.686 22.2011 49.3091 20.9247 51.7456C17.5722 57.9868 15.7587 69.8364 15.8115 85.1011C15.8115 103.951 18.3213 122.673 23.2763 140.754C28.0829 158.296 35.2206 175.312 44.4658 191.305C45.5215 193.129 45.8056 195.259 45.2568 197.293C44.7197 199.339 43.413 201.047 41.5781 202.101C40.3769 202.796 39.0068 203.166 37.625 203.166C34.8096 203.166 32.1856 201.66 30.7724 199.223C20.8525 182.072 13.1982 163.812 8.0234 144.93C2.6982 125.479 0 105.354 0 85.1021C0.0098 71.1431 1.2022 60.7281 3.7529 52.3042C6.4619 43.3022 10.9433 36.8501 17.0654 33.1265C21.0185 30.7232 25.8261 29.4478 30.9707 29.4478H31.0664C36.2002 29.4693 41.6719 30.5542 48.292 32.895C59.1524 36.7856 71.1914 43.395 85.9395 52.1352C90.42 54.7915 94.9844 57.5532 99.8135 60.4731C109.923 66.5991 120.381 72.9243 131.493 79.1977C150.733 90.0668 167.844 98.353 183.816 104.531C201.597 111.406 218.151 115.801 234.215 117.902C237.857 109.473 246.249 103.558 255.999 103.558C265.745 103.558 274.133 109.468 277.778 117.889C328.263 111.294 375.288 82.8412 413.385 59.768C417.318 57.3862 421.039 55.1401 424.718 52.937C439.878 43.9126 451.443 37.5044 462.239 33.4341C469.492 30.7359 475.436 29.4712 480.929 29.4497H481.026C486.17 29.4497 490.977 30.7241 494.92 33.1284C499.043 35.6167 502.553 39.5278 505.105 44.4399L505.105 44.44ZM256 135.186C260.36 135.186 263.907 131.639 263.907 127.28C263.907 122.919 260.36 119.372 256 119.372C251.64 119.372 248.093 122.919 248.093 127.28C248.093 131.639 251.64 135.186 256 135.186ZM200.654 348.665C200.654 341.398 194.742 335.487 187.475 335.487C180.21 335.487 174.298 341.399 174.298 348.665C174.298 355.931 180.21 361.843 187.475 361.843C194.742 361.843 200.654 355.931 200.654 348.665ZM284.046 401.378L256 345.688L227.954 401.378L256 457.068L284.046 401.378ZM337.702 348.665C337.702 341.398 331.79 335.487 324.524 335.487C317.258 335.487 311.346 341.399 311.346 348.665C311.346 355.931 317.257 361.843 324.524 361.843C331.791 361.843 337.702 355.931 337.702 348.665ZM272.132 395.789C275.22 398.878 275.22 403.883 272.132 406.972L261.59 417.514C260.046 419.057 258.023 419.829 255.999 419.829C253.976 419.829 251.952 419.057 250.408 417.514L239.867 406.972C236.779 403.883 236.779 398.878 239.867 395.789C242.955 392.702 247.96 392.702 251.049 395.789L256 400.74L260.949 395.789C264.038 392.702 269.043 392.702 272.132 395.789V395.789Z" fill="black"/>
</g>
<defs>
<clipPath id="clip0_265_252">
<rect width="512" height="512.002" fill="white"/>
</clipPath>
</defs>
</svg>
