<svg width="512" height="513" viewBox="0 0 512 513" fill="none" xmlns="http://www.w3.org/2000/svg">
<path d="M353.191 193.772C378.897 193.772 399.812 214.687 399.812 240.393C399.812 266.1 378.897 287.016 353.19 287.016H158.808C133.1 287.016 112.188 266.101 112.188 240.393C112.188 214.686 133.103 193.772 158.811 193.772C158.834 193.772 158.859 193.776 158.884 193.776H210.639C215.831 193.776 220.038 197.985 220.038 203.175C220.038 208.367 215.831 212.576 210.639 212.576H158.665C143.391 212.654 130.987 225.102 130.987 240.393C130.987 255.736 143.469 268.216 158.81 268.216C174.151 268.216 186.631 255.735 186.631 240.393C186.631 235.203 190.838 230.994 196.032 230.994C201.225 230.994 205.432 235.203 205.432 240.393C205.432 250.814 201.993 260.445 196.196 268.216H315.805C310.006 260.445 306.568 250.812 306.568 240.393C306.568 229.975 310.004 220.346 315.801 212.576H301.368C296.175 212.576 291.968 208.367 291.968 203.175C291.968 197.985 296.175 193.776 301.368 193.776H353.046C353.094 193.776 353.142 193.772 353.19 193.772H353.191ZM353.191 268.215C368.532 268.215 381.013 255.734 381.012 240.392C381.012 225.1 368.609 212.653 353.336 212.574H353.046C337.772 212.653 325.37 225.1 325.37 240.392C325.37 255.735 337.85 268.215 353.191 268.215ZM502.056 29.6951C506.466 30.5603 509.645 34.4246 509.647 38.9178V175.802C509.647 178.602 508.399 181.254 506.242 183.04C504.085 184.828 501.25 185.561 498.495 185.037L450.126 175.871V362.336C450.126 444.861 382.992 512.001 300.475 512.001H211.528C129.008 512.001 61.8749 444.861 61.8749 362.336V175.872L13.5067 185.038C10.7567 185.561 7.91595 184.827 5.75975 183.041C3.60355 181.255 2.35645 178.602 2.35645 175.803V38.9178C2.35645 34.4246 5.53615 30.5604 9.94525 29.6951L160.249 0.176452C163.005 -0.364548 165.864 0.354152 168.032 2.14035C168.294 2.35715 168.54 2.58465 168.775 2.82395L168.776 2.82295C168.784 2.83275 168.794 2.84155 168.804 2.85025L168.805 2.85125C191.958 26.4724 222.923 39.4822 256.001 39.4822C289.092 39.4822 320.068 26.4627 343.227 2.82295L343.228 2.82395C343.462 2.58465 343.709 2.35425 343.97 2.14035C346.139 0.356152 348.993 -0.363548 351.753 0.176452L502.056 29.6951ZM171.46 30.1431V36.2427C171.46 82.857 209.385 120.782 256 120.782C302.615 120.782 340.54 82.857 340.54 36.2427V30.1421C316.299 48.4107 286.951 58.2837 256 58.2847C225.049 58.2847 195.701 48.4107 171.46 30.1431V30.1431ZM81.037 372.098C85.8075 436.494 137.382 488.07 201.773 492.836C197.001 428.443 145.429 376.87 81.037 372.098ZM291.369 493.2C292.729 471.33 298.806 450.721 308.598 432.374C293.482 421.036 275.078 414.855 256.006 414.855C236.938 414.855 218.529 421.036 203.405 432.374C213.194 450.722 219.271 471.33 220.633 493.2H291.369H291.369ZM310.229 492.838C374.619 488.069 426.192 436.494 430.963 372.1C366.571 376.873 315 428.446 310.229 492.838ZM490.845 164.454H490.843V46.6511L359.339 20.8269V36.2419C359.339 93.2224 312.981 139.581 255.999 139.581C199.017 139.581 152.659 93.2235 152.659 36.2419V20.8269L21.1549 46.6511V164.453L69.5221 155.287C70.1032 155.178 70.6891 155.123 71.2721 155.123C73.443 155.123 75.568 155.875 77.2682 157.284C79.4254 159.07 80.6725 161.723 80.6725 164.523V353.238C127.219 356.139 168.07 380.403 193.501 416.327C211.606 403.199 233.424 396.055 256.004 396.055C278.588 396.055 300.405 403.198 318.499 416.327C343.928 380.404 384.779 356.14 431.325 353.239V164.524C431.325 161.725 432.573 159.071 434.729 157.285C436.886 155.499 439.729 154.766 442.476 155.288L490.845 164.454Z" fill="black"/>
</svg>
