<svg width="512" height="513" viewBox="0 0 512 513" fill="none" xmlns="http://www.w3.org/2000/svg">
<path d="M435 288.783C435 313.11 420.324 334.063 399.369 343.287C407.373 353.427 412.17 366.211 412.17 380.104C412.17 403.75 398.311 424.218 378.289 433.817C384.261 442.559 387.292 452.928 386.908 463.761C385.945 490.812 363.593 512.001 336.02 512.001H213.607C138.283 512.001 77.001 450.721 77.001 375.395V274.534C77.001 210.541 121.239 156.709 180.732 141.952V64.0778C180.732 28.7458 209.476 0.00158691 244.808 0.00158691C280.139 0.00158691 308.883 28.7457 308.883 64.0778V137.927H355.505C387.79 137.927 414.97 163.666 416.094 195.302C416.625 210.202 411.725 224.365 402.256 235.645C421.66 245.466 435.001 265.59 435.001 288.784L435 288.783ZM208.471 64.077H208.473V138.057C210.179 137.994 211.887 137.927 213.609 137.927H281.144V64.077C281.144 44.0409 264.843 27.7401 244.808 27.7401C224.772 27.7401 208.471 44.0409 208.471 64.077H208.471ZM375.469 320.574C392.999 320.574 407.257 306.308 407.257 288.779C407.257 271.25 392.997 256.987 375.465 256.987H249.44C241.78 256.987 235.571 250.778 235.571 243.118C235.571 235.458 241.78 229.248 249.44 229.248H356.599C365.305 229.248 373.431 225.797 379.48 219.529C385.523 213.266 388.682 205.011 388.371 196.284C387.772 179.401 373.027 165.664 355.506 165.664H213.608C153.577 165.664 104.741 214.501 104.741 274.531V375.392C104.741 435.422 153.578 484.259 213.608 484.259H336.021C348.371 484.259 358.763 474.619 359.186 462.773C359.404 456.647 357.188 450.851 352.947 446.456C348.702 442.06 342.997 439.636 336.889 439.636H249.443C241.782 439.636 235.574 433.427 235.574 425.767C235.574 418.107 241.783 411.897 249.443 411.897H352.639C370.17 411.897 384.432 397.637 384.432 380.106C384.432 362.575 370.17 348.313 352.639 348.313H249.443C241.782 348.313 235.574 342.103 235.574 334.443C235.574 326.783 241.783 320.573 249.443 320.573H352.639H375.47L375.469 320.574Z" fill="black"/>
</svg>
