<svg width="41" height="67" viewBox="0 0 41 67" fill="none" xmlns="http://www.w3.org/2000/svg">
<path fill-rule="evenodd" clip-rule="evenodd" d="M20.5 27.9167C17.671 27.9167 15.375 25.4153 15.375 22.3333C15.375 19.2513 17.671 16.75 20.5 16.75C23.329 16.75 25.625 19.2513 25.625 22.3333C25.625 25.4153 23.329 27.9167 20.5 27.9167ZM20.5 13.9583C16.2539 13.9583 12.8125 17.7075 12.8125 22.3333C12.8125 26.9591 16.2539 30.7083 20.5 30.7083C24.7461 30.7083 28.1875 26.9591 28.1875 22.3333C28.1875 17.7075 24.7461 13.9583 20.5 13.9583ZM2.5625 21.2223C2.5625 11.404 10.9444 2.79167 20.5 2.79167C30.0556 2.79167 38.4375 11.404 38.4375 21.2223C38.4375 30.8675 31.8698 42.2798 20.5 61.7768C8.99694 42.0313 2.5625 30.8675 2.5625 21.2223V21.2223ZM20.5 0C9.74263 0 0 9.50004 0 21.2223C0 32.9417 8.88931 46.9335 20.5 67C32.1107 46.9335 41 32.9417 41 21.2223C41 9.50004 31.2599 0 20.5 0" fill="white"/>
</svg>
