<svg width="512" height="513" viewBox="0 0 512 513" fill="none" xmlns="http://www.w3.org/2000/svg">
<g clip-path="url(#clip0_264_246)">
<path d="M509.061 165.858C512.98 169.777 512.98 175.656 509.061 179.576L419.898 267.759V489.197C419.898 495.076 415.978 498.995 410.099 498.995H102.437C96.5579 498.995 92.638 495.076 92.6379 489.197V267.759L3.47478 179.576L2.49528 178.595C-1.42462 174.676 -0.444124 168.797 3.47478 164.878L119.093 66.896C120.073 65.9165 122.032 64.937 123.992 64.937L172.983 59.0581L165.145 49.2593C164.165 49.2593 164.165 48.2798 164.165 48.2798C161.226 43.3804 162.205 37.5015 167.104 34.562L198.458 13.9858C199.438 13.9858 200.418 13.0063 201.397 13.0063H202.378H203.357H311.137C314.077 13.0063 317.016 15.9457 317.016 15.9458L344.451 35.5425C348.37 38.4819 348.37 45.3404 345.43 49.2593L337.593 59.0581L386.583 64.937C388.543 64.937 390.503 65.9165 391.482 66.896L508.081 164.878L509.061 165.858ZM322.896 45.3409L311.138 37.502L270.965 86.4932C270.965 87.4727 269.985 87.4727 269.985 87.4727L276.844 104.13L322.896 45.3409ZM201.397 35.5429L186.699 45.3407L233.731 104.13L242.549 86.4931L201.397 35.5429ZM246.47 479.4V127.645L245.489 128.625C244.51 129.605 243.53 130.585 242.55 131.564C238.631 134.504 231.772 133.524 228.833 129.605L186.7 76.6951L128.892 83.5535L24.0506 172.717L91.658 239.345V205.051C91.658 199.172 95.577 195.253 101.456 195.253C107.335 195.253 111.255 199.172 111.255 205.051V479.401H245.489H246.469L246.47 479.4ZM257.247 70.8159H258.227L289.581 32.603H223.933L255.288 70.8159H257.247H257.247ZM418.917 240.323L486.524 173.695L381.684 84.5319L323.874 76.693L282.722 129.603C280.762 132.543 277.823 133.523 274.883 133.523H272.924C269.004 133.523 266.065 130.584 265.085 127.644V169.776H272.924C278.803 169.776 282.722 173.695 282.722 179.574C282.722 185.453 278.803 189.373 272.924 189.373H265.085V248.162H272.924C278.803 248.162 282.722 252.081 282.722 257.96C282.722 263.839 278.803 267.758 272.924 267.758H265.085V326.547H272.924C278.803 326.547 282.722 330.467 282.722 336.345C282.722 342.224 278.803 346.143 272.924 346.143H265.085V404.932H272.924C278.803 404.932 282.722 408.851 282.722 414.73C282.722 420.609 278.803 424.529 272.924 424.529H265.085V480.379H399.32V206.029C399.32 200.15 403.239 196.231 409.118 196.231C414.997 196.231 418.916 200.15 418.916 206.029V240.323L418.917 240.323Z" fill="black"/>
</g>
<defs>
<clipPath id="clip0_264_246">
<rect width="512" height="512.002" fill="white"/>
</clipPath>
</defs>
</svg>
