<svg width="35" height="35" viewBox="0 0 35 35" fill="none" xmlns="http://www.w3.org/2000/svg">
<path d="M34.9212 33.0992L25.1632 23.2892C27.496 20.4745 28.6549 16.8693 28.3992 13.2225C28.1435 9.57574 26.4928 6.16759 23.79 3.706C21.0872 1.24441 17.54 -0.0814263 13.8853 0.00387488C10.2305 0.089176 6.74907 1.57906 4.16407 4.16407C1.57906 6.74907 0.089176 10.2305 0.00387488 13.8853C-0.0814263 17.54 1.24441 21.0872 3.706 23.79C6.16759 26.4928 9.57574 28.1435 13.2225 28.3992C16.8693 28.6549 20.4745 27.496 23.2892 25.1632L33.0992 34.9212L34.9212 33.0992ZM2.61018 14.2472C2.60919 11.9466 3.29043 9.69737 4.56775 7.78394C5.84506 5.87052 7.66109 4.37884 9.78619 3.49753C11.9113 2.61622 14.25 2.38486 16.5066 2.83271C18.7631 3.28056 20.8362 4.38751 22.4637 6.01358C24.0912 7.63964 25.1999 9.71179 25.6497 11.968C26.0995 14.2242 25.8701 16.5631 24.9907 18.6889C24.1112 20.8148 22.6211 22.6321 20.7087 23.9111C18.7964 25.19 16.5478 25.8732 14.2472 25.8742C12.7196 25.8748 11.2069 25.5746 9.79542 24.9907C8.38391 24.4067 7.10124 23.5504 6.02065 22.4708C4.94005 21.3911 4.08269 20.1092 3.49753 18.6982C2.91236 17.2872 2.61083 15.7747 2.61018 14.2472Z" fill="#111111"/>
</svg>
