<svg width="512" height="513" viewBox="0 0 512 513" fill="none" xmlns="http://www.w3.org/2000/svg">
<g clip-path="url(#clip0_265_254)">
<path d="M512 329.724C512 329.743 511.997 329.761 511.997 329.781C511.882 349.845 501.086 362.669 484.148 368.676C475.452 371.76 466.669 372.646 459.127 372.367L25.8537 372.36C16.4328 372.36 8.79613 364.727 8.79613 355.302V338.252C8.79613 333.208 11.0002 328.689 14.4806 325.566C12.8927 322.126 11.1935 318.013 9.50603 313.254C-6.18537 269.019 -4.08377 217.907 28.1867 164.4C29.2394 162.926 30.9015 160.961 33.1154 158.966C38.842 153.806 45.3009 151.126 52.4523 153.563C61.0958 156.511 66.4289 166.052 69.4923 182.514C69.5665 182.901 69.6359 183.297 69.7062 183.691C69.7677 184.047 69.8361 184.386 69.8966 184.748C70.4415 185.94 71.6534 187.856 73.6369 189.825C86.34 202.44 111.892 199.512 157.146 165.028C157.37 164.857 157.607 164.72 157.839 164.574C158.079 164.34 158.334 164.113 158.61 163.9C162.994 160.524 166.975 157.341 171.472 153.604C171.486 153.593 171.5 153.582 171.513 153.571C171.718 153.426 171.949 153.267 172.175 153.111C174.717 151.359 178.541 149.025 183.248 146.684C189.533 143.558 195.791 141.28 201.878 140.225C209.222 138.954 216.009 139.527 221.853 142.453C223.203 143.129 224.503 143.931 225.748 144.863C229.862 147.95 240.982 155.208 255.497 164.413C255.919 164.681 256.34 164.947 256.767 165.218C258.463 166.293 260.199 167.39 261.979 168.512C262.025 168.54 262.069 168.569 262.115 168.598C262.173 168.635 262.234 168.673 262.292 168.709C264.875 170.338 267.542 172.014 270.269 173.722C270.652 173.963 271.033 174.201 271.42 174.443L275.688 170.176C279.019 166.845 284.418 166.845 287.749 170.176C291.08 173.506 291.08 178.906 287.749 182.237L286.279 183.706C291.778 187.119 297.385 190.587 302.995 194.04L307.537 189.498C310.868 186.167 316.268 186.167 319.599 189.498C322.93 192.829 322.93 198.228 319.599 201.559L317.945 203.213C325.625 207.906 333.105 212.45 340.08 216.657L343.651 213.086C346.982 209.755 352.382 209.755 355.713 213.086C359.044 216.417 359.044 221.816 355.713 225.147L355.166 225.693C369.748 234.358 379.982 240.189 381.484 240.492C381.49 240.493 381.498 240.496 381.506 240.497C381.673 240.531 381.858 240.574 382.052 240.623C382.2 240.658 382.361 240.702 382.523 240.746C382.536 240.75 382.549 240.753 382.563 240.757C385.273 241.5 389.891 243.296 396.636 246.178C404.983 249.731 416.357 254.85 430.53 261.37C442.139 266.708 451.808 270.574 473.351 278.763C474.309 279.126 474.309 279.126 475.268 279.491C476.515 279.966 476.515 279.966 477.763 280.439C498.131 288.192 512 305.464 512 329.724L512 329.724ZM467.29 294.704C445.388 286.38 435.477 282.418 423.402 276.865C417.925 274.347 412.756 271.991 407.996 269.846L407.513 270.616C391.804 295.62 358.804 303.167 333.802 287.469L293.261 262.012L234.078 321.194H494.068C491.476 309.175 483.284 300.791 471.694 296.38L469.206 295.432L467.29 294.704ZM191.434 321.194H209.955L278.443 252.707L267.065 245.563L191.434 321.194ZM148.79 321.194V321.193H167.311L252.246 236.258L240.87 229.114L148.79 321.194ZM68.4968 207.477H68.4978V218.849C68.4978 223.562 72.3122 227.377 77.0261 227.377H145.257C149.971 227.377 153.785 223.562 153.785 218.849V188.536C115.126 214.813 87.0515 219.256 68.4968 207.477V207.477ZM181.829 167.145C180.735 168.063 179.647 168.963 178.566 169.853L342.872 273.024C359.454 283.435 381.205 278.83 392.208 262.851C384.647 259.587 379.528 257.538 378.205 257.236C378.183 257.231 378.152 257.222 378.131 257.218C377.986 257.189 377.812 257.14 377.606 257.073C373.918 255.855 360.529 248.371 342.873 237.987L330.39 250.469C327.059 253.8 321.659 253.8 318.328 250.469C314.998 247.139 314.998 241.739 318.328 238.408L327.734 229.001C320.623 224.748 313.14 220.229 305.549 215.609L296.28 224.878C292.949 228.209 287.55 228.209 284.219 224.878C280.888 221.547 280.888 216.147 284.219 212.816L290.579 206.456C284.935 202.989 279.326 199.526 273.856 196.129L262.162 207.823C258.831 211.154 253.432 211.154 250.101 207.823C246.77 204.492 246.77 199.092 250.101 195.761L259.003 186.859C254.491 184.027 250.167 181.297 246.098 178.711C231.441 169.397 220.109 161.959 215.505 158.505C214.916 158.063 214.252 157.698 213.514 157.413C211.292 156.554 208.396 156.411 204.796 157.034C200.553 157.767 195.77 159.507 190.842 161.959C188.373 163.186 186.036 164.507 183.92 165.824C182.682 166.595 181.819 167.172 181.94 167.053C181.903 167.084 181.866 167.115 181.829 167.145L181.829 167.145ZM42.4323 173.756C13.3747 221.981 11.4899 267.827 25.5817 307.549C27.3766 312.608 29.2907 317.069 31.3473 321.194H124.666L226.051 219.809L170.843 185.143V218.847C170.843 232.981 159.392 244.434 145.257 244.434H77.0254C62.8916 244.434 51.4395 232.981 51.4395 218.847V179.674C49.7569 173.077 47.9786 170.058 46.9473 169.707C47.1407 169.772 46.1426 170.185 44.5342 171.636C43.374 172.682 42.4629 173.759 42.4327 173.756L42.4323 173.756ZM478.447 352.599C486.284 349.819 491.499 345.337 493.72 338.251H26.2901H25.8526V355.301C25.8526 355.301 459.665 355.327 460.01 355.341C465.314 355.529 472.118 354.843 478.446 352.599L478.447 352.599Z" fill="black"/>
</g>
<defs>
<clipPath id="clip0_265_254">
<rect width="512" height="512.002" fill="white"/>
</clipPath>
</defs>
</svg>
