<svg width="511" height="511" viewBox="0 0 511 511" fill="none" xmlns="http://www.w3.org/2000/svg">
<g clip-path="url(#clip0_265_258)">
<path d="M470.14 136.437H493.805C500.496 136.461 506.582 132.573 509.37 126.494C512.177 120.654 511.31 113.713 507.152 108.748C494.684 93.5226 475.91 84.8718 456.235 85.2817C436.56 85.6955 418.165 95.1232 406.344 110.852H373.681C370.597 98.5937 360.939 89.0723 348.634 86.1718C336.329 83.2673 323.435 87.4639 315.194 97.0556C308.799 89.5759 299.454 85.2661 289.612 85.2661C279.771 85.2661 270.421 89.5759 264.027 97.0556C257.632 89.5759 248.282 85.2661 238.445 85.2661C228.603 85.2661 219.254 89.5759 212.859 97.0556C204.622 87.4639 191.724 83.2673 179.423 86.1718C167.118 89.0723 157.456 98.5937 154.372 110.852H104.657C92.8325 95.1193 74.4378 85.6916 54.7625 85.2817C35.0873 84.8718 16.3139 93.5265 3.84507 108.755C-0.308592 113.721 -1.17524 120.658 1.6277 126.494C4.41893 132.573 10.505 136.461 17.1922 136.437H40.8571C50.1599 136.184 58.1471 143.003 59.3534 152.232C59.7087 157.178 57.8973 162.035 54.3917 165.544C51.1944 168.769 46.8378 170.572 42.2977 170.549H17.7192C11.0281 170.49 4.93423 174.41 2.21718 180.527C-0.620897 186.726 0.495595 194.022 5.05525 199.094C17.6685 213.592 36.1218 221.669 55.3325 221.095C74.5393 220.522 92.4773 211.359 104.204 196.134H118.395L106.875 224.933C103.209 234.24 103.771 244.682 108.417 253.544L159.892 336.402C161.071 338.768 161.688 341.38 161.692 344.027V409.334C161.692 418.753 169.328 426.389 178.748 426.389H298.138C307.558 426.389 315.194 418.753 315.194 409.334V364.611C315.198 361.98 315.807 359.38 316.978 357.022L348.755 314.194C363.5 294.979 372.455 271.95 374.567 247.821C374.782 244.811 374.891 241.801 374.891 238.772V196.134H406.793C418.52 211.355 436.458 220.518 455.665 221.088C474.872 221.661 493.321 213.588 505.934 199.094C510.498 194.022 511.614 186.73 508.78 180.527C506.063 174.41 499.973 170.49 493.278 170.549H468.7C464.175 170.561 459.834 168.757 456.649 165.544C453.143 162.035 451.332 157.178 451.687 152.232C452.893 143.019 460.853 136.207 470.14 136.437V136.437ZM340.779 102.326C350.199 102.326 357.835 109.962 357.835 119.382V179.079C357.835 188.495 350.199 196.134 340.779 196.134C331.36 196.134 323.724 188.495 323.724 179.079V119.382C323.724 109.962 331.36 102.326 340.779 102.326ZM289.612 102.326C299.032 102.326 306.668 109.962 306.668 119.382V179.079C306.668 188.495 299.032 196.134 289.612 196.134C280.192 196.134 272.556 188.495 272.556 179.079V119.382C272.556 109.962 280.192 102.326 289.612 102.326ZM238.445 102.326C247.865 102.326 255.501 109.962 255.501 119.382V146.669C252.647 145.576 249.625 144.998 246.569 144.963H221.389V119.382C221.389 109.962 229.025 102.326 238.445 102.326ZM187.274 102.326C196.694 102.326 204.329 109.962 204.329 119.382V144.963H170.218V119.382C170.218 109.962 177.854 102.326 187.274 102.326ZM53.3845 204.063C39.7602 203.985 26.819 198.067 17.8481 187.808L11.4614 193.456L17.7192 187.605H42.2977C51.78 187.605 60.833 183.662 67.2899 176.717C73.7429 169.776 77.0182 160.457 76.3272 151.002C74.5549 132.826 59.1153 119.061 40.8571 119.382L16.9775 119.67C25.9329 108.763 39.2761 102.404 53.3845 102.326C80.8244 102.982 102.561 125.71 101.995 153.153C102.584 180.617 80.8478 203.384 53.3845 204.063ZM114.061 179.079C120.632 162.667 120.717 144.374 114.292 127.907H153.162V147.61C141.747 151.705 132.632 160.504 128.135 171.767L125.219 179.079H114.061ZM357.554 246.611C355.665 267.5 347.861 287.417 335.056 304.028L302.873 347.403C302.631 347.735 302.413 348.083 302.218 348.442C299.536 353.423 298.134 358.99 298.138 364.647V409.334H178.748V344.027C178.716 338.471 177.35 333.006 174.766 328.087L123.314 245.237C121.135 240.88 120.924 235.801 122.736 231.277L144.004 178.103C147.861 168.37 157.285 161.988 167.755 162.019H246.569C249.122 162.019 251.542 163.143 253.19 165.091C254.763 166.93 255.442 169.374 255.04 171.759C251.339 193.574 237.149 204.66 212.859 204.66H187.274C183.151 204.656 179.618 207.604 178.877 211.66C178.139 215.716 180.407 219.721 184.264 221.17C184.896 221.412 246.971 245.51 246.971 298.469C246.971 303.177 250.789 306.999 255.501 306.999C260.209 306.999 264.027 303.177 264.027 298.469C264.027 260.946 240.389 236.043 219.859 221.462C236.719 221.209 252.452 212.964 262.254 199.246C268.317 207.612 277.877 212.741 288.203 213.163C298.525 213.584 308.472 209.251 315.194 201.405C325.777 213.858 343.813 216.836 357.835 208.447V238.772C357.835 241.391 357.742 244.011 357.554 246.611V246.611ZM374.891 179.079V127.907H396.706C390.284 144.374 390.366 162.667 396.936 179.079H374.891ZM444.59 177.603C450.969 184.021 459.651 187.624 468.7 187.605L493.149 187.808C484.178 198.067 471.241 203.985 457.613 204.063C430.15 203.384 408.413 180.617 409.003 153.153C408.437 125.71 430.173 102.982 457.613 102.326C471.62 102.376 484.885 108.619 493.848 119.382H470.14C451.882 119.061 436.442 132.826 434.674 151.002C433.964 160.887 437.582 170.592 444.59 177.603V177.603Z" fill="black"/>
</g>
<defs>
<clipPath id="clip0_265_258">
<rect width="511" height="511" fill="white"/>
</clipPath>
</defs>
</svg>
