<svg width="512" height="513" viewBox="0 0 512 513" fill="none" xmlns="http://www.w3.org/2000/svg">
<path d="M431.166 194.69C467.845 197.056 496.887 227.712 496.78 264.928V295.691C496.78 333.124 467.522 363.779 430.629 366.038C426.971 422.185 399.328 450.045 375.986 463.705C359.422 473.386 342.75 477.15 332.208 478.656C326.937 497.803 309.405 512.001 288.538 512.001H256.161C231.207 512.001 210.877 491.564 210.877 466.609C210.877 441.654 231.207 421.325 256.161 421.325H288.43C308.545 421.325 325.647 434.448 331.563 452.626C353.075 449.076 399.435 433.479 404.706 366.145H386.635C379.536 366.145 373.727 360.337 373.727 353.238V207.383C373.727 200.283 379.536 194.475 386.635 194.475H405.135V175.006C405.135 89.924 344.578 25.817 264.12 25.817H247.878C167.529 25.817 106.863 89.9244 106.863 175.006V194.475H125.363C132.463 194.475 138.271 200.283 138.271 207.383V353.346C138.271 360.445 132.463 366.253 125.363 366.253H85.6729C46.8428 366.253 15.2188 334.63 15.2188 295.799V265.036C15.2188 227.712 44.3692 197.164 81.0479 194.691V175.006C81.0479 127.894 97.7198 84.1155 127.945 51.6311C158.924 18.2873 201.519 0.0012207 247.985 0.0012207H264.228C310.694 0.0012207 353.29 18.2873 384.268 51.6311C414.493 84.1155 431.165 127.894 431.165 175.006V194.691L431.166 194.69ZM112.672 340.33V220.29H85.8885C61.2568 220.29 41.2498 240.297 41.2498 264.929V295.692C41.2498 320.323 61.2566 340.33 85.8885 340.33H112.672V340.33ZM288.538 486.186C299.294 486.186 308.007 477.474 308.007 466.717C308.007 455.961 299.294 447.248 288.538 447.248H256.161C245.405 447.248 236.692 455.961 236.692 466.717C236.692 477.474 245.405 486.186 256.161 486.186H288.538ZM471.072 295.691V264.928C471.072 240.297 451.065 220.29 426.433 220.29H399.65V340.33H426.433C451.065 340.33 471.072 320.323 471.072 295.691V295.691Z" fill="#666666"/>
</svg>
