<svg width="512" height="513" viewBox="0 0 512 513" fill="none" xmlns="http://www.w3.org/2000/svg">
<path d="M430.947 194.689C467.627 197.055 496.669 227.71 496.561 264.927V295.69C496.561 333.123 467.304 363.778 430.41 366.037C426.753 422.184 399.109 450.043 375.767 463.704C359.203 473.384 342.531 477.149 331.989 478.655C326.719 497.801 309.186 512 288.319 512H255.942C230.988 512 210.658 491.563 210.658 466.608C210.658 441.653 230.988 421.324 255.942 421.324H288.212C308.326 421.324 325.428 434.447 331.344 452.625C352.856 449.075 399.216 433.478 404.487 366.144H386.417C379.317 366.144 373.509 360.335 373.509 353.237V207.382C373.509 200.282 379.317 194.474 386.417 194.474H404.917V175.005C404.917 89.9228 344.359 25.8158 263.902 25.8158H247.66C167.31 25.8158 106.645 89.9232 106.645 175.005V194.474H125.145C132.244 194.474 138.053 200.282 138.053 207.382V353.345C138.053 360.443 132.244 366.252 125.145 366.252H85.4541C46.624 366.252 15 334.629 15 295.798V265.035C15 227.711 44.1504 197.163 80.8291 194.689V175.005C80.8291 127.893 97.501 84.1143 127.727 51.6299C158.705 18.2861 201.3 0 247.767 0H264.009C310.476 0 353.071 18.2861 384.049 51.6299C414.274 84.1143 430.946 127.893 430.946 175.005V194.689L430.947 194.689ZM112.453 340.329V220.289H85.6698C61.038 220.289 41.0311 240.296 41.0311 264.928V295.69C41.0311 320.322 61.0379 340.329 85.6698 340.329H112.453V340.329ZM288.319 486.185C299.075 486.185 307.788 477.473 307.788 466.716C307.788 455.96 299.075 447.247 288.319 447.247H255.942C245.186 447.247 236.473 455.96 236.473 466.716C236.473 477.472 245.186 486.185 255.942 486.185H288.319ZM470.853 295.69V264.927C470.853 240.295 450.846 220.288 426.214 220.288H399.431V340.328H426.214C450.846 340.328 470.853 320.322 470.853 295.69V295.69Z" fill="black"/>
</svg>
