<svg width="512" height="513" viewBox="0 0 512 513" fill="none" xmlns="http://www.w3.org/2000/svg">
<g clip-path="url(#clip0_265_260)">
<path d="M137.46 391.028C116.437 391.028 99.3325 373.925 99.3325 352.9C99.3325 331.877 116.437 314.773 137.46 314.773C158.484 314.773 175.588 331.877 175.588 352.9C175.588 373.925 158.484 391.028 137.46 391.028ZM137.46 331.113C125.446 331.113 115.673 340.887 115.673 352.9C115.673 364.914 125.447 374.688 137.46 374.688C149.474 374.688 159.247 364.914 159.247 352.9C159.247 340.887 149.474 331.113 137.46 331.113ZM374.54 314.773C395.564 314.773 412.668 331.876 412.668 352.9C412.668 373.924 395.564 391.028 374.54 391.028C353.517 391.028 336.413 373.924 336.413 352.9C336.413 331.877 353.517 314.773 374.54 314.773ZM374.54 374.688C386.555 374.688 396.328 364.914 396.328 352.9C396.328 340.888 386.554 331.113 374.54 331.113C362.527 331.113 352.753 340.888 352.753 352.9C352.753 364.914 362.527 374.688 374.54 374.688ZM149.787 126.42C143.046 126.42 129.077 132.455 124.455 137.366L71.9593 193.146H200.201L200.202 118.25C200.202 113.738 203.859 110.08 208.372 110.08H318.639C327.122 110.08 339.446 117.9 343.057 125.576L376.668 197.871C377.844 200.401 377.647 203.357 376.147 205.71C374.646 208.062 372.05 209.486 369.259 209.486H53.0493C49.7895 209.486 46.8423 207.55 45.5493 204.557C44.2573 201.564 44.8647 198.091 47.0991 195.717L112.556 126.166C120.341 117.898 138.433 110.08 149.788 110.08H175.692C180.205 110.08 183.862 113.738 183.862 118.25C183.862 122.763 180.205 126.42 175.692 126.42H149.788H149.787ZM216.542 126.42L216.541 193.146H356.451L328.255 132.5C327.158 130.431 321.016 126.532 318.616 126.42H216.542H216.542ZM512 280.721V320.221C512 342.747 495.565 361.073 475.364 361.073H455.832C451.72 402.3 416.833 434.605 374.54 434.605C329.49 434.605 292.838 397.952 292.838 352.903C292.838 307.852 329.49 271.201 374.54 271.201C416.833 271.201 451.72 303.504 455.832 344.732H475.364C486.556 344.732 495.66 333.737 495.66 320.221V288.282C469.251 284.324 448.935 261.491 448.935 233.997C448.935 230.824 449.214 227.678 449.75 224.583L418.706 214.235C407.976 210.658 396.253 200.244 391.438 190.01L357.841 118.618C351.496 105.132 333.543 93.7396 318.639 93.7396H149.787C133.986 93.7396 111.487 103.46 100.658 114.967L25.3193 195.017C20.6201 200.009 16.3408 210.8 16.3408 217.656V320.219C16.3408 333.735 27.3369 344.73 40.8506 344.73H56.168C60.2803 303.503 95.167 271.198 137.46 271.198C179.753 271.198 214.641 303.503 218.753 344.73H268.328C272.842 344.73 276.498 348.388 276.498 352.9C276.498 357.413 272.842 361.071 268.328 361.071H218.753C214.641 402.299 179.753 434.602 137.46 434.602C95.167 434.602 60.2803 402.299 56.168 361.071H40.8506C18.3252 361.071 0 342.746 0 320.219V217.656C0 206.676 5.8945 191.813 13.4209 183.817L88.7588 103.769C102.676 88.9817 129.482 77.3997 149.787 77.3997H318.639C339.872 77.3997 363.587 92.4485 372.627 111.66L406.223 183.052C409.085 189.133 417.498 196.607 423.875 198.733C423.875 198.733 462.069 211.464 462.087 211.47C489.609 220.644 512 251.71 512 280.721H512ZM137.46 287.539C101.42 287.539 72.0991 316.86 72.0991 352.9C72.0991 388.941 101.42 418.263 137.46 418.263C173.5 418.263 202.822 388.941 202.822 352.9C202.822 316.86 173.5 287.539 137.46 287.539ZM374.54 418.263C410.58 418.263 439.902 388.941 439.902 352.9C439.902 316.86 410.58 287.539 374.54 287.539C338.5 287.539 309.179 316.86 309.179 352.9C309.179 388.941 338.5 418.263 374.54 418.263ZM465.275 233.997C465.275 252.099 477.819 267.318 494.667 271.441C491.315 255.215 479.738 239.154 465.402 230.846C465.318 231.889 465.275 232.941 465.275 233.997V233.997Z" fill="black"/>
</g>
<defs>
<clipPath id="clip0_265_260">
<rect width="512" height="512.002" fill="white"/>
</clipPath>
</defs>
</svg>
