<svg width="51" height="55" viewBox="0 0 51 55" fill="none" xmlns="http://www.w3.org/2000/svg">
<path d="M6.22683 3.02958L12.7443 0L22.005 18.0812L15.7602 21.1544C14.5272 24.0396 20.7079 35.5667 23.3158 35.7569C23.522 35.624 29.4368 32.7135 29.4368 32.7135L38.8556 50.891C38.8556 50.891 32.5214 53.994 32.3152 54.0902C14.3004 62.3196 -11.458 12.249 6.22683 3.02958V3.02958ZM10.6497 5.94917L8.30537 7.10417C-3.82671 13.4337 17.8777 55.6531 30.4154 49.9262L32.6406 48.84L27.4362 38.7956L25.085 39.9415C17.8364 43.4867 6.15121 21.1062 13.5006 17.1669L15.8083 16.0279L10.6497 5.94917V5.94917ZM28.5981 23.4781L35.2829 25.4719C35.7939 23.76 35.6495 21.8533 34.7329 20.1621C33.8185 18.4685 32.2991 17.3044 30.5895 16.7956L28.5981 23.4781V23.4781ZM32.7322 9.59292C36.2866 10.6517 39.4377 13.0671 41.3397 16.5848C43.2441 20.1048 43.5397 24.0625 42.481 27.6146L38.3675 26.3885C39.1122 23.8883 38.9014 21.104 37.5608 18.6267C36.2247 16.1494 34.0064 14.4512 31.5039 13.7087L32.7322 9.59292V9.59292ZM34.9093 2.29167C40.3291 3.90729 45.137 7.59 48.0383 12.9617C50.9464 18.331 51.3979 24.3696 49.7822 29.7917L45.5656 28.5358C46.8581 24.1931 46.496 19.3554 44.1722 15.0562C41.8439 10.7548 37.9939 7.80312 33.6512 6.51062L34.9093 2.29167V2.29167Z" fill="#111111"/>
</svg>
