<svg width="512" height="513" viewBox="0 0 512 513" fill="none" xmlns="http://www.w3.org/2000/svg">
<g clip-path="url(#clip0_265_248)">
<path d="M422.092 355.621C424.662 360.652 420.945 366.534 415.42 366.533C412.691 366.533 410.059 365.039 408.734 362.442L323.139 194.85C292.704 211.06 218.608 211.41 188.888 194.808L175.147 221.716C173.261 225.406 168.741 226.867 165.055 224.985C161.366 223.099 159.903 218.582 161.79 214.891L177.197 184.723C169.439 172.727 175.31 156.499 189.055 152.369C188.183 138.083 186.566 124.486 186.138 121.033C177.353 97.0485 179.357 69.53 179.357 21.6159C179.357 15.0261 182.327 8.9255 187.34 4.8542C201.384 -6.555 222.548 3.4099 222.548 21.6159C222.589 43.4264 222.469 43.7614 222.629 45.4089C222.825 47.4636 223.589 50.1814 225.391 51.1511C247.684 59.5486 253.15 76.4636 255.881 77.5915C258.344 77.7741 263.61 59.8181 286.619 51.1501C288.504 50.1394 289.238 47.279 289.405 45.1276C289.626 42.2819 289.296 22.2028 289.571 19.4499C291.756 -2.5384 322.243 -7.3899 330.955 13.2058C333.225 18.5769 332.655 15.9734 332.655 78.7204C332.655 78.8337 332.501 84.7038 331.949 91.4343C331.592 95.5612 327.949 98.612 323.831 98.2614C319.705 97.9059 316.649 94.2702 317.004 90.1433C317.922 79.0593 317.636 72.0984 317.655 59.9851H299.071C291.469 68.8142 284.506 63.1257 271.371 82.4558C268.174 87.157 265.468 90.9939 259.122 92.3005V92.3015C253.482 93.4441 248.036 91.3982 244.542 87.6501C239.337 82.07 235.858 71.03 219.868 65.1013C218.014 64.4197 215.195 62.6072 212.937 59.9861H194.352C194.385 77.1853 193.644 98.615 200.479 116.572C201.72 119.841 203.848 148.225 204.133 153.294C212.241 156.915 205.172 157.468 225.06 161.467C259.378 167.238 295.633 161.459 301.758 157.395C303.527 155.706 305.918 154.167 307.872 153.294C308.468 142.662 309.495 132.257 310.307 124.959C310.766 120.842 314.482 117.876 318.592 118.336C322.71 118.795 325.674 122.504 325.216 126.621C324.596 132.171 323.584 142.056 322.954 152.375C336.331 156.393 342.802 171.945 334.751 184.607L422.092 355.621ZM304.46 21.618C304.453 44.8084 304.478 43.869 304.437 44.9862H317.654V21.618C317.654 17.9911 314.72 15.0223 311.056 15.0223C307.434 15.0223 304.46 17.9413 304.46 21.618ZM194.867 19.052C193.966 21.1829 194.519 20.7542 194.352 44.9856H207.569C207.527 43.8625 207.553 44.7161 207.545 21.6174C207.545 14.3938 197.638 12.5051 194.867 19.052V19.052ZM323.228 173.618C324.053 168.076 316.735 163.663 311.899 168.451C298.793 181.371 217.956 183.301 199.536 167.928C196.989 165.819 193.178 165.916 190.748 168.259C188.13 170.784 188.054 174.968 190.578 177.587C211.992 199.806 320.053 194.945 323.228 173.618H323.228ZM453.209 416.554C458.761 427.332 455.705 440.466 445.931 447.761C400.071 481.993 354.267 457.303 330.453 481.119C289.342 522.213 223.47 522.064 182.492 482.053C156.119 456.296 112.677 482.551 66.0661 447.761C56.2917 440.466 53.237 427.332 58.7995 416.531L145.846 246.093C147.732 242.404 152.253 240.944 155.938 242.825C159.628 244.709 161.091 249.227 159.207 252.915L72.1462 423.377C69.9411 427.659 71.1618 432.847 75.0378 435.742C107.71 460.127 139.815 449.275 168.788 457.538L208.553 254.56C209.35 250.496 213.285 247.853 217.357 248.642C221.421 249.44 224.071 253.38 223.275 257.445L182.897 463.549C186.387 465.636 189.759 468.183 192.972 471.323C228.692 506.196 285.216 505.131 319.847 470.511C322.59 467.77 325.467 465.504 328.461 463.619L288.069 257.445C287.273 253.378 289.923 249.439 293.987 248.641C298.064 247.852 301.994 250.496 302.79 254.559L342.543 457.473C370.783 449.493 404.265 460.149 436.962 435.742C440.838 432.847 442.058 427.659 439.866 423.4L424.654 393.616C422.769 389.926 424.233 385.41 427.922 383.526C431.608 381.639 436.128 383.104 438.012 386.793L453.209 416.554Z" fill="black"/>
</g>
<defs>
<clipPath id="clip0_265_248">
<rect width="512" height="512.002" fill="white"/>
</clipPath>
</defs>
</svg>
